<svg width="1785" height="1785" viewBox="0 0 1785 1785" fill="none" xmlns="http://www.w3.org/2000/svg">
<!-- <rect width="1785" height="1785" fill="transparent"/> -->
<path fill-rule="evenodd" clip-rule="evenodd" d="M1383.83 404.378C1380.26 404.611 1376.9 405.233 1376.37 405.759C1375.84 406.286 1375.3 411.775 1375.15 417.956C1375.01 424.138 1374.88 614.484 1374.87 840.946C1374.85 1067.41 1374.46 1252.7 1374.01 1252.7C1373.56 1252.7 1369.66 1247.63 1365.34 1241.45C1353.13 1223.95 1345.18 1212.61 1332.22 1194.2C1325.64 1184.85 1315.06 1169.77 1308.71 1160.7C1264.91 1098.05 1252.22 1079.96 1236.84 1058.2C1225.6 1042.29 1215.17 1027.41 1203.2 1010.2C1199.75 1005.25 1193.57 996.471 1189.47 990.696C1185.36 984.921 1179.37 976.386 1176.17 971.728C1170.57 963.599 1159.33 947.569 1138.99 918.696C1133.76 911.271 1126.49 900.921 1122.83 895.696C1119.17 890.471 1108.59 875.396 1099.33 862.196C1090.06 848.996 1079.33 833.696 1075.48 828.196C1056.15 800.569 1048.85 790.183 1043.76 783.027C1035.46 771.351 1017.23 745.299 1011 736.196C1007.98 731.796 1003.86 725.946 1001.84 723.196C999.816 720.446 993.13 710.996 986.982 702.196C974.566 684.424 966.101 672.447 957.794 660.898C954.746 656.662 948.86 648.246 944.712 642.196C937.669 631.921 929.618 620.44 919.468 606.196C917.116 602.896 909.72 592.321 903.031 582.696C885.157 556.975 863.751 527.539 850.581 510.569C846.045 504.724 836.964 493.024 830.4 484.569C823.836 476.114 815.511 465.384 811.9 460.726C808.289 456.067 803.278 449.317 800.766 445.726C783.444 420.964 774.224 410.064 768.152 407.167C764.883 405.608 760.858 405.281 740.164 404.891C671.486 403.598 641.272 412.867 605.135 446.314C568.744 479.995 552.118 522.115 555.722 571.5C556.94 588.196 559.68 603.903 563.501 616.107C567.688 629.478 577.837 649.042 586.891 661.196C595.611 672.903 610.767 688.332 619.834 694.734C622.859 696.87 628.034 700.526 631.334 702.859C634.634 705.192 644.534 710.747 653.334 715.203C668.612 722.94 681.85 727.867 707.334 735.301C712.284 736.746 716.9 738.641 717.592 739.514C718.587 740.768 718.847 764.602 718.834 853.149C718.825 914.775 718.821 965.984 718.826 966.946C718.841 970.093 723.018 968.882 734.339 962.446C748.588 954.346 750.262 954.327 765.454 962.091C771.486 965.174 777.413 967.696 778.623 967.696C780.825 967.696 780.825 967.696 781.079 860.946L781.334 754.196L784.138 754.392C790.341 754.824 822.962 766.021 846.834 775.911C860.059 781.391 883.198 793.459 895.441 801.262C950.926 836.628 989.632 883.226 1007.18 935.787C1014.7 958.297 1018.08 983.087 1018.08 1015.7C1018.08 1056.94 1012.52 1086.69 997.843 1123.8C975.775 1179.62 934.28 1230.82 883.359 1265.04C867.388 1275.77 841.196 1288.92 820.63 1296.52C802.95 1303.05 784.682 1308.23 782.404 1307.36C781.317 1306.94 781.089 1303.72 781.287 1291.52C781.424 1283.09 781.603 1238.79 781.685 1193.07L781.834 1109.94L791.78 1105.17C803.724 1099.44 808.219 1095.32 808.029 1090.27C807.898 1086.78 802.945 1075.99 795.835 1063.7C793.768 1060.12 789.803 1052.87 787.026 1047.59C782.545 1039.07 768.191 1012.29 753.325 984.696C750.509 979.471 747.579 975.196 746.813 975.196C745.371 975.196 743.109 978.902 733.289 997.349C730.113 1003.31 724.509 1013.82 720.835 1020.7C717.161 1027.57 710.434 1040.17 705.887 1048.7C701.34 1057.22 696.907 1065.32 696.035 1066.7C691.743 1073.47 684.834 1088.27 684.834 1090.69C684.834 1092.2 685.761 1094.6 686.895 1096.05C689.631 1099.52 699.957 1105.21 709.565 1108.53L717.334 1111.21V1212.71V1314.2L704.199 1314.02C684.579 1313.76 649.796 1308.32 631.334 1302.64C569.21 1283.5 514.915 1245.39 476.815 1194.2C444.279 1150.47 424.179 1100.82 417.719 1048.2C416.13 1035.26 416.117 993.928 417.698 981.696C420.295 961.604 427.165 932.402 433.461 914.696C436.153 907.128 445.478 886.652 450.084 878.196C460.359 859.335 478.004 833.904 487.949 823.625C495.547 815.771 502.834 806.973 502.834 805.654C502.834 803.754 459.696 760.696 457.792 760.696C456.373 760.696 440.415 776.895 429.717 789.196C405.039 817.571 379.472 863.254 367.459 900.438C353.675 943.105 349.115 975.637 350.138 1024.02C350.746 1052.79 352.39 1070.14 356.385 1089.95C359.825 1107.01 367.768 1134.28 373.496 1148.7C407.264 1233.67 468.547 1300.72 549.834 1341.63C570.825 1352.19 577.488 1355.02 597.33 1361.77C625.331 1371.29 644.152 1375.35 681.334 1379.87C696.97 1381.77 749.805 1381.45 762.834 1379.37C800.685 1373.34 813.855 1370.12 843.334 1359.7C870.689 1350.03 906.091 1331.93 928.334 1316.24C931.634 1313.91 936.809 1310.29 939.834 1308.2C956.678 1296.55 984.785 1270.5 1000.18 1252.25C1033.35 1212.96 1054.75 1174.11 1069.74 1125.95C1075.5 1107.46 1081.01 1078.45 1083.95 1051.2C1086.67 1025.91 1085.28 984.451 1080.92 961.128C1080.46 958.656 1080.47 956.421 1080.95 956.126C1081.42 955.833 1084.5 959.329 1087.78 963.895C1095.14 974.122 1120.1 1009.34 1133.35 1028.2C1138.76 1035.9 1145.28 1045.12 1147.84 1048.7C1152.13 1054.68 1173.95 1085.5 1196.34 1117.2C1215.73 1144.65 1221.54 1152.84 1232.92 1168.78C1235.44 1172.31 1244.17 1184.65 1252.32 1196.2C1279.08 1234.09 1290.35 1250.03 1298.9 1262.02C1322.98 1295.8 1329.53 1305.05 1335.89 1314.2C1339.71 1319.7 1345.43 1327.83 1348.59 1332.27C1361.75 1350.77 1364.61 1354.8 1373.46 1367.32C1378.56 1374.54 1383.47 1380.73 1384.37 1381.07C1385.26 1381.41 1396.98 1381.7 1410.4 1381.7C1434.8 1381.7 1434.8 1381.7 1435.35 1379.45C1435.66 1378.21 1435.78 1158.86 1435.62 891.996C1435.4 511.042 1435.07 406.533 1434.11 405.572C1432.85 404.313 1397.66 403.477 1383.83 404.378ZM735.452 464.656C738.724 465.856 743.018 471.143 746.836 478.673C749.204 483.343 750.677 485.597 775.93 523.196C789.56 543.491 816.409 582.004 826.819 596.196C828.837 598.946 836.297 609.521 843.397 619.696C850.497 629.871 861.938 646.122 868.82 655.809C875.703 665.496 888.113 683.046 896.398 694.809C911.372 716.068 924.457 734.524 932.584 745.849C939.09 754.914 938.397 755.751 929.283 749.834C914.328 740.123 869.705 719.816 844.469 711.236C808.795 699.107 793.731 695.119 747.834 685.655C718.919 679.693 704.122 674.886 684.505 665.083C650.669 648.173 630.979 626.945 619.976 595.51C606.895 558.14 615.066 522.112 643.257 492.851C658.769 476.751 679.422 466.683 702.955 463.747C712.171 462.598 731.3 463.132 735.452 464.656Z" fill="#FFB90B"/>
</svg>
